<svg width="22" height="20" viewBox="0 0 22 20" fill="none" xmlns="http://www.w3.org/2000/svg">
<path d="M21.2326 4.34884H15.093" stroke="#596780" stroke-width="1.5" stroke-miterlimit="10" stroke-linecap="round" stroke-linejoin="round"/>
<path d="M4.86047 4.34884H0.767442" stroke="#596780" stroke-width="1.5" stroke-miterlimit="10" stroke-linecap="round" stroke-linejoin="round"/>
<path d="M8.95349 7.93023C10.9314 7.93023 12.5349 6.32679 12.5349 4.34884C12.5349 2.37089 10.9314 0.767442 8.95349 0.767442C6.97554 0.767442 5.37209 2.37089 5.37209 4.34884C5.37209 6.32679 6.97554 7.93023 8.95349 7.93023Z" stroke="#596780" stroke-width="1.5" stroke-miterlimit="10" stroke-linecap="round" stroke-linejoin="round"/>
<path d="M21.2326 15.6047H17.1395" stroke="#596780" stroke-width="1.5" stroke-miterlimit="10" stroke-linecap="round" stroke-linejoin="round"/>
<path d="M6.90698 15.6047H0.767442" stroke="#596780" stroke-width="1.5" stroke-miterlimit="10" stroke-linecap="round" stroke-linejoin="round"/>
<path d="M13.0465 19.186C15.0245 19.186 16.6279 17.5826 16.6279 15.6047C16.6279 13.6267 15.0245 12.0233 13.0465 12.0233C11.0686 12.0233 9.46512 13.6267 9.46512 15.6047C9.46512 17.5826 11.0686 19.186 13.0465 19.186Z" stroke="#596780" stroke-width="1.5" stroke-miterlimit="10" stroke-linecap="round" stroke-linejoin="round"/>
</svg>
