<svg width="22" height="21" viewBox="0 0 22 21" fill="none" xmlns="http://www.w3.org/2000/svg">
<path d="M21.3441 7.41831L19.32 6.40626C18.9455 6.2241 18.48 6.36578 18.2978 6.74024C18.1055 7.12482 18.2573 7.58024 18.6318 7.76241L20.241 8.56193V13.4096L16.4458 13.4198V3.03614C16.4458 1.01205 15.0896 0 13.4096 0H5.31325C3.63325 0 2.27711 1.01205 2.27711 3.03614V19.4819H0.759036C0.344096 19.4819 0 19.826 0 20.241C0 20.6559 0.344096 21 0.759036 21H17.9639C18.3788 21 18.7229 20.6559 18.7229 20.241C18.7229 19.826 18.3788 19.4819 17.9639 19.4819H16.4458V14.9378L21 14.9277C21.4251 14.9277 21.759 14.5836 21.759 14.1687V8.09639C21.759 7.81301 21.5971 7.54988 21.3441 7.41831ZM4.80723 4.94892C4.80723 3.54217 5.66747 3.03614 6.72 3.03614H12.013C13.0554 3.03614 13.9157 3.54217 13.9157 4.94892V6.19373C13.9157 7.59036 13.0554 8.09639 12.0029 8.09639H6.72C5.66747 8.09639 4.80723 7.59036 4.80723 6.18361V4.94892ZM5.31325 10.3735H8.3494C8.76434 10.3735 9.10843 10.7176 9.10843 11.1325C9.10843 11.5475 8.76434 11.8916 8.3494 11.8916H5.31325C4.89831 11.8916 4.55422 11.5475 4.55422 11.1325C4.55422 10.7176 4.89831 10.3735 5.31325 10.3735Z" fill="#90A3BF"/>
</svg>
