<svg width="21" height="20" viewBox="0 0 21 20" fill="none" xmlns="http://www.w3.org/2000/svg">
<path d="M7.04004 0C4.42004 0 2.29004 2.13 2.29004 4.75C2.29004 7.32 4.30004 9.4 6.92004 9.49C7.00004 9.48 7.08004 9.48 7.14004 9.49C7.16004 9.49 7.17004 9.49 7.19004 9.49C7.20004 9.49 7.20004 9.49 7.21004 9.49C9.77004 9.4 11.78 7.32 11.79 4.75C11.79 2.13 9.66004 0 7.04004 0Z" fill="#90A3BF"/>
<path d="M12.12 12.15C9.33 10.29 4.78 10.29 1.97 12.15C0.7 13 0 14.15 0 15.38C0 16.61 0.7 17.75 1.96 18.59C3.36 19.53 5.2 20 7.04 20C8.88 20 10.72 19.53 12.12 18.59C13.38 17.74 14.08 16.6 14.08 15.36C14.07 14.13 13.38 12.99 12.12 12.15Z" fill="#90A3BF"/>
<path d="M18.0301 5.34001C18.1901 7.28001 16.8101 8.98001 14.9001 9.21001C14.8901 9.21001 14.8901 9.21001 14.8801 9.21001H14.8501C14.7901 9.21001 14.7301 9.21001 14.6801 9.23001C13.7101 9.28001 12.8201 8.97001 12.1501 8.40001C13.1801 7.48001 13.7701 6.10001 13.6501 4.60001C13.5801 3.79001 13.3001 3.05001 12.8801 2.42001C13.2601 2.23001 13.7001 2.11001 14.1501 2.07001C16.1101 1.90001 17.8601 3.36001 18.0301 5.34001Z" fill="#90A3BF"/>
<path d="M20.03 14.59C19.95 15.56 19.33 16.4 18.29 16.97C17.29 17.52 16.03 17.78 14.78 17.75C15.5 17.1 15.92 16.29 16 15.43C16.1 14.19 15.51 13 14.33 12.05C13.66 11.52 12.88 11.1 12.03 10.79C14.24 10.15 17.02 10.58 18.73 11.96C19.65 12.7 20.12 13.63 20.03 14.59Z" fill="#90A3BF"/>
</svg>
